<?xml version="1.0" standalone="no"?>
<!DOCTYPE svg PUBLIC "-//W3C//DTD SVG 20010904//EN"
 "http://www.w3.org/TR/2001/REC-SVG-20010904/DTD/svg10.dtd">
<svg version="1.0" xmlns="http://www.w3.org/2000/svg"
 width="674.000000pt" height="674.000000pt" viewBox="0 0 674.000000 674.000000"
 preserveAspectRatio="xMidYMid meet">
<metadata>
Created by potrace 1.11, written by Peter Selinger 2001-2013
</metadata>
<g transform="translate(0.000000,674.000000) scale(0.100000,-0.100000)"
fill="#000000" stroke="none">
<path d="M2213 3945 c-95 -29 -188 -107 -232 -194 -69 -135 -67 -323 4 -417
69 -90 206 -100 293 -20 l24 21 -6 -25 c-64 -280 -70 -296 -116 -323 -26 -16
-34 -16 -57 -5 -54 26 -55 107 -2 137 23 12 29 12 59 -2 18 -10 35 -17 37 -17
1 0 3 17 3 38 0 54 -28 77 -90 77 -84 0 -144 -62 -144 -148 0 -96 60 -147 173
-147 104 0 168 47 219 160 19 44 122 472 122 510 0 6 -27 10 -63 10 l-63 0
-18 -57 c-37 -121 -91 -183 -156 -183 -30 0 -44 6 -64 30 -31 38 -40 83 -33
169 14 173 116 326 229 346 31 6 41 3 62 -19 33 -32 33 -63 1 -109 -22 -33
-22 -38 -9 -52 25 -25 87 -19 114 10 19 20 24 36 23 76 -1 63 -23 96 -83 127
-51 26 -157 29 -227 7z"/>
<path d="M727 3929 c-154 -52 -262 -181 -242 -286 7 -40 40 -73 72 -73 13 0
26 0 29 0 3 0 6 35 7 77 2 65 7 86 30 126 34 57 104 109 118 86 5 -8 9 -71 9
-140 0 -69 3 -228 7 -353 l6 -227 80 3 81 3 95 258 c113 302 109 303 111 -18
0 -110 3 -210 6 -222 6 -21 12 -23 83 -23 l76 0 148 398 c81 218 147 400 147
405 0 4 -17 7 -37 7 l-38 0 -110 -322 -110 -322 -6 285 c-3 156 -7 301 -8 322
l-1 37 -69 0 -69 0 -77 -227 c-43 -126 -93 -268 -110 -317 l-32 -90 -6 175
c-4 96 -7 238 -7 317 l0 142 -62 0 c-36 -1 -88 -9 -121 -21z"/>
<path d="M3280 3943 c-59 -23 -86 -41 -111 -76 -25 -34 -29 -49 -29 -101 1
-64 10 -85 48 -105 24 -13 53 -8 90 16 l23 14 -26 30 c-19 23 -25 42 -25 75 0
108 121 129 150 26 30 -111 -6 -185 -181 -367 -139 -145 -168 -191 -169 -267
0 -53 2 -54 53 -33 49 20 98 19 185 -5 39 -11 91 -20 115 -20 88 0 154 67 142
144 -8 57 -13 59 -48 30 -35 -29 -12 -29 -246 -5 l-65 6 34 38 c18 21 81 76
140 122 173 136 210 187 210 292 0 72 -27 129 -77 163 -30 21 -50 25 -117 27
-45 1 -88 0 -96 -4z"/>
<path d="M5026 3889 c-33 -5 -63 -12 -66 -16 -4 -5 -32 -129 -63 -276 -31
-147 -64 -281 -72 -297 -18 -35 -68 -64 -95 -55 -28 9 -26 46 10 217 40 186
36 176 73 180 45 4 52 38 8 38 -36 0 -36 3 -16 85 22 92 25 88 -57 80 -44 -4
-77 -12 -84 -21 -6 -8 -17 -42 -23 -75 -9 -45 -17 -63 -31 -66 -22 -6 -35 -43
-14 -43 19 0 18 -16 -12 -165 -25 -118 -30 -133 -63 -168 -68 -72 -169 -99
-211 -57 -28 28 -29 110 -2 110 45 0 118 36 163 79 75 73 91 179 34 229 -21
18 -38 22 -89 22 -154 0 -259 -122 -285 -330 -5 -38 -17 -81 -26 -97 -17 -29
-81 -80 -90 -71 -3 2 18 109 45 238 28 128 50 237 50 241 0 5 -36 9 -80 9 -66
0 -80 -3 -80 -16 0 -13 -5 -12 -26 5 -55 43 -155 21 -226 -50 -75 -75 -118
-187 -118 -309 0 -74 20 -122 63 -154 36 -26 123 -28 161 -3 30 20 36 21 36 4
0 -7 -26 -25 -57 -39 -75 -34 -113 -74 -120 -125 -6 -49 8 -78 50 -103 62 -38
166 -15 219 48 14 17 33 60 43 99 9 37 19 73 20 79 2 6 23 21 48 33 24 12 54
32 67 46 l22 24 32 -34 c76 -80 228 -66 335 30 36 33 41 35 47 19 15 -50 26
-66 56 -85 41 -25 102 -20 165 15 l43 25 -6 -25 c-6 -24 -6 -24 75 -24 45 0
81 1 81 3 0 29 84 376 96 396 21 36 54 52 77 39 23 -12 22 -57 -4 -171 -40
-178 -26 -238 60 -266 54 -17 118 -1 163 41 l31 29 31 -30 c76 -73 206 -63
321 25 l48 36 -7 -29 c-20 -81 -27 -73 62 -73 l80 0 15 68 c9 37 28 128 43
202 23 110 33 139 53 158 29 27 64 25 69 -3 6 -31 22 -45 51 -45 50 0 78 41
71 105 -6 59 -88 75 -154 30 -20 -14 -38 -25 -40 -25 -2 0 -1 11 2 25 4 25 4
25 -75 25 l-80 0 -34 -167 c-31 -153 -37 -171 -67 -205 -42 -46 -106 -78 -159
-78 -53 0 -73 23 -73 82 0 45 1 46 37 53 133 25 235 153 204 257 -16 53 -43
68 -120 68 -84 0 -140 -27 -191 -91 -47 -59 -77 -136 -92 -236 -12 -77 -41
-123 -77 -123 -45 0 -51 45 -21 160 43 166 35 242 -31 275 -41 22 -110 15
-150 -14 -16 -12 -29 -17 -29 -11 0 6 11 62 25 126 14 64 25 117 25 120 0 5
-21 4 -94 -7z m-578 -302 c6 -67 -73 -167 -132 -167 -19 0 -18 7 14 93 42 112
111 155 118 74z m1247 22 c13 -41 -5 -89 -54 -140 -55 -57 -98 -68 -86 -21 11
45 55 135 77 159 27 29 55 29 63 2z m-1774 -5 c10 -13 7 -40 -19 -162 -28
-132 -35 -150 -62 -174 -36 -34 -53 -35 -81 -7 -19 19 -21 30 -16 85 13 166
122 325 178 258z m-119 -602 c-23 -45 -65 -53 -70 -14 -4 27 11 48 53 74 30
18 30 18 33 -2 2 -12 -5 -38 -16 -58z"/>
<path d="M1685 3671 c-104 -47 -185 -204 -185 -361 0 -122 51 -174 171 -174
55 0 74 4 106 26 38 25 73 79 73 112 0 13 -8 11 -46 -9 -26 -14 -59 -25 -75
-25 -35 0 -69 41 -69 85 0 30 3 33 41 39 80 13 174 83 198 149 12 31 15 106 5
132 -18 45 -144 60 -219 26z m135 -61 c19 -35 -6 -99 -56 -147 -44 -43 -84
-56 -84 -28 0 31 44 128 72 161 34 39 53 43 68 14z"/>
<path d="M2705 3671 c-102 -46 -185 -204 -185 -353 0 -122 53 -178 169 -178
42 0 74 6 100 20 78 39 139 140 156 255 6 38 17 60 45 91 34 37 70 93 70 109
0 18 -39 0 -63 -30 -30 -37 -47 -45 -47 -20 0 35 -34 97 -61 110 -39 21 -135
19 -184 -4z m143 -63 c16 -16 15 -36 -4 -55 -16 -16 -15 -39 1 -105 17 -65
-60 -208 -110 -208 -28 0 -55 34 -55 70 1 48 29 160 56 221 36 79 80 109 112
77z"/>
<path d="M3800 2550 c0 -13 7 -20 20 -20 13 0 20 7 20 20 0 13 -7 20 -20 20
-13 0 -20 -7 -20 -20z"/>
<path d="M5380 2415 c0 -148 1 -155 20 -155 18 0 20 7 20 78 0 64 4 82 18 95
48 44 82 3 82 -100 0 -58 3 -73 15 -73 12 0 15 17 15 90 0 78 -3 93 -21 111
-21 21 -50 22 -91 4 -16 -6 -18 -1 -18 49 0 49 -2 56 -20 56 -19 0 -20 -7 -20
-155z"/>
<path d="M560 2544 c0 -3 23 -46 50 -96 41 -74 50 -100 50 -139 0 -37 4 -49
15 -49 11 0 15 12 15 49 0 39 9 65 50 139 28 50 50 93 50 96 0 3 -9 6 -20 6
-14 0 -29 -19 -55 -70 -19 -38 -37 -70 -40 -70 -3 0 -21 32 -40 70 -26 51 -41
70 -55 70 -11 0 -20 -3 -20 -6z"/>
<path d="M2160 2499 c0 -12 -8 -23 -20 -26 -11 -3 -20 -9 -20 -13 0 -4 9 -10
20 -13 18 -5 20 -14 20 -84 0 -48 5 -84 12 -91 17 -17 58 -15 58 3 0 8 -6 15
-14 15 -20 0 -26 23 -26 92 0 51 3 61 20 65 11 3 20 9 20 13 0 4 -9 10 -20 13
-12 3 -20 14 -20 26 0 12 -6 21 -15 21 -9 0 -15 -9 -15 -21z"/>
<path d="M3530 2495 c0 -16 -6 -25 -15 -25 -8 0 -15 -4 -15 -10 0 -5 6 -10 14
-10 10 0 15 -22 18 -86 5 -90 12 -104 56 -104 27 0 29 26 2 33 -18 5 -20 14
-20 81 0 69 2 76 20 76 11 0 20 5 20 10 0 6 -9 10 -20 10 -15 0 -20 7 -20 25
0 18 -5 25 -20 25 -15 0 -20 -7 -20 -25z"/>
<path d="M4450 2499 c0 -12 -8 -23 -20 -26 -11 -3 -20 -9 -20 -13 0 -4 9 -10
20 -13 18 -5 20 -14 20 -84 0 -48 5 -84 12 -91 17 -17 58 -15 58 3 0 8 -6 15
-14 15 -20 0 -26 23 -26 92 0 51 3 61 20 65 11 3 20 9 20 13 0 4 -9 10 -20 13
-12 3 -20 14 -20 26 0 12 -6 21 -15 21 -9 0 -15 -9 -15 -21z"/>
<path d="M4950 2499 c0 -12 -8 -23 -20 -26 -11 -3 -20 -9 -20 -13 0 -4 9 -10
20 -13 18 -5 20 -14 20 -84 0 -48 5 -84 12 -91 17 -17 58 -15 58 3 0 8 -6 15
-14 15 -20 0 -26 23 -26 92 0 51 3 61 20 65 11 3 20 9 20 13 0 4 -9 10 -20 13
-12 3 -20 14 -20 26 0 12 -6 21 -15 21 -9 0 -15 -9 -15 -21z"/>
<path d="M848 2465 c-56 -31 -59 -152 -5 -190 36 -25 84 -19 119 15 28 29 30
35 26 86 -3 37 -11 62 -24 75 -27 26 -82 33 -116 14z m82 -35 c25 -25 27 -95
3 -122 -52 -57 -121 31 -82 105 22 42 48 48 79 17z"/>
<path d="M1330 2470 c-8 -5 -25 -7 -37 -3 -23 5 -23 4 -23 -101 0 -88 3 -106
15 -106 12 0 15 15 15 71 0 82 11 109 45 109 18 0 25 5 25 20 0 21 -16 26 -40
10z"/>
<path d="M1562 2464 c-12 -8 -22 -10 -22 -5 0 6 -9 11 -20 11 -19 0 -20 -7
-20 -105 0 -98 1 -105 20 -105 17 0 19 8 22 82 3 78 5 83 30 97 24 14 28 14
47 -3 18 -16 21 -31 21 -98 0 -63 3 -78 15 -78 12 0 15 17 15 94 0 87 -2 96
-22 110 -12 9 -32 16 -43 16 -11 0 -31 -7 -43 -16z"/>
<path d="M1762 2455 c-16 -13 -32 -39 -36 -56 -8 -43 10 -105 37 -124 27 -19
87 -20 112 -2 24 18 11 41 -15 27 -29 -16 -58 -12 -80 10 -38 38 -27 50 50 50
68 0 70 1 70 25 0 54 -39 95 -90 95 -10 0 -32 -11 -48 -25z m82 -21 c31 -30
20 -44 -34 -44 -49 0 -50 1 -39 23 21 40 47 47 73 21z"/>
<path d="M2412 2463 c-26 -21 -45 -91 -36 -131 10 -42 43 -72 79 -72 17 0 36
5 42 11 17 17 23 -4 9 -32 -10 -21 -18 -24 -59 -22 -33 1 -47 -3 -47 -12 0
-31 95 -35 128 -5 20 19 22 30 22 145 l0 124 -27 0 c-16 0 -42 3 -58 6 -22 5
-37 1 -53 -12z m86 -29 c28 -19 31 -97 5 -126 -58 -64 -127 46 -72 116 24 30
36 32 67 10z"/>
<path d="M2670 2470 c-8 -5 -25 -7 -37 -3 -23 5 -23 4 -23 -101 0 -99 1 -106
20 -106 18 0 20 7 20 85 l0 86 30 6 c21 4 30 11 30 24 0 21 -16 24 -40 9z"/>
<path d="M2778 2465 c-56 -31 -59 -152 -5 -190 36 -25 84 -19 119 15 28 29 30
35 26 86 -3 37 -11 62 -24 75 -27 26 -82 33 -116 14z m82 -35 c25 -25 27 -95
3 -122 -52 -57 -121 31 -82 105 22 42 48 48 79 17z"/>
<path d="M3260 2470 c-8 -5 -25 -7 -37 -3 l-23 5 0 -146 c0 -123 2 -146 15
-146 11 0 15 12 15 45 l0 45 45 -7 c38 -5 49 -2 69 16 61 57 26 201 -48 201
-11 0 -28 -5 -36 -10z m59 -46 c39 -49 17 -134 -34 -134 -37 0 -55 26 -55 80
0 39 4 52 22 64 31 22 43 20 67 -10z"/>
<path d="M3722 2471 c-7 -4 -24 -6 -38 -3 l-24 4 0 -106 c0 -99 1 -106 20
-106 18 0 20 7 20 78 0 80 9 102 41 102 9 0 19 9 22 20 5 21 -16 27 -41 11z"/>
<path d="M3960 2470 c-8 -5 -25 -7 -37 -3 l-23 5 0 -146 c0 -139 1 -146 20
-146 17 0 20 7 20 52 0 40 3 49 12 40 13 -13 56 -16 83 -6 23 9 45 57 45 99 0
82 -66 139 -120 105z m59 -46 c38 -49 17 -134 -33 -134 -35 0 -46 20 -46 82 0
44 4 59 18 67 27 16 39 13 61 -15z"/>
<path d="M4260 2468 c-28 -15 -39 -60 -20 -84 7 -7 30 -19 51 -26 50 -14 66
-32 49 -53 -18 -21 -58 -19 -72 5 -14 22 -48 27 -48 8 1 -46 77 -73 134 -47
25 12 40 47 30 72 -5 15 -46 37 -68 37 -8 0 -24 9 -37 20 -24 20 -24 20 -5 35
27 20 43 19 63 -5 22 -25 43 -26 43 -1 0 39 -74 63 -120 39z"/>
<path d="M4608 2464 c-32 -17 -37 -44 -8 -44 11 0 20 4 20 9 0 16 38 23 60 11
11 -6 20 -20 20 -30 0 -15 -7 -20 -29 -20 -48 0 -91 -20 -97 -46 -16 -63 27
-99 90 -75 20 7 32 8 34 1 2 -5 12 -10 23 -10 17 0 19 8 19 85 0 78 -2 88 -25
110 -28 28 -66 32 -107 9z m92 -124 c0 -42 -81 -66 -88 -27 -6 28 17 47 54 47
27 0 34 -4 34 -20z"/>
<path d="M4860 2471 c-8 -6 -27 -7 -42 -4 l-28 6 0 -107 c0 -99 1 -106 20
-106 18 0 20 7 20 79 0 81 6 95 45 103 11 2 21 11 23 21 4 18 -14 22 -38 8z"/>
<path d="M5096 2459 c-19 -15 -26 -29 -24 -47 3 -27 19 -38 86 -63 25 -9 32
-17 30 -33 -4 -30 -62 -35 -80 -7 -16 26 -38 27 -38 2 0 -27 37 -51 80 -51 48
0 80 24 80 60 0 33 -25 54 -78 65 -38 8 -50 28 -32 50 17 21 48 19 62 -5 15
-23 48 -27 48 -6 0 22 -49 56 -80 56 -15 0 -39 -10 -54 -21z"/>
<path d="M5630 2452 c-26 -26 -30 -38 -30 -82 0 -44 4 -56 29 -81 22 -21 39
-29 66 -29 45 0 76 16 69 35 -5 11 -11 12 -24 5 -44 -23 -100 1 -100 43 0 14
11 17 65 17 l65 0 0 34 c0 45 -27 75 -72 83 -32 5 -41 1 -68 -25z m94 -24 c21
-29 12 -38 -40 -38 -48 0 -52 5 -28 38 19 28 49 28 68 0z"/>
<path d="M5880 2470 c-8 -5 -25 -7 -37 -3 -23 5 -23 4 -23 -101 0 -99 1 -106
20 -106 18 0 20 7 20 85 l0 86 30 6 c21 4 30 11 30 24 0 21 -16 24 -40 9z"/>
<path d="M5982 2455 c-16 -13 -32 -39 -36 -56 -8 -43 10 -105 37 -124 27 -19
87 -20 112 -2 24 18 11 41 -15 27 -29 -16 -58 -12 -80 10 -38 38 -27 50 50 50
68 0 70 1 70 25 0 54 -39 95 -90 95 -10 0 -32 -11 -48 -25z m82 -21 c31 -30
20 -44 -34 -44 -49 0 -50 1 -39 23 21 40 47 47 73 21z"/>
<path d="M1040 2385 c0 -72 3 -88 20 -105 22 -22 60 -26 93 -9 16 9 22 9 25 0
2 -6 10 -11 18 -11 11 0 14 21 14 105 0 98 -1 105 -20 105 -18 0 -20 -7 -20
-80 0 -77 -1 -81 -26 -92 -46 -21 -59 -2 -62 91 -3 73 -5 81 -22 81 -18 0 -20
-7 -20 -85z"/>
<path d="M1944 2445 c9 -14 23 -36 32 -50 16 -25 15 -27 -20 -80 -36 -54 -36
-55 -13 -55 17 0 29 10 43 35 10 19 22 35 27 35 4 0 17 -16 28 -35 12 -20 29
-35 40 -35 25 0 24 4 -11 55 -16 24 -30 49 -30 55 0 6 14 31 30 56 l31 44 -23
0 c-16 0 -30 -10 -41 -30 -22 -37 -28 -37 -49 0 -11 19 -25 30 -39 30 -20 0
-21 -1 -5 -25z"/>
<path d="M2970 2385 c0 -72 3 -88 20 -105 22 -22 60 -26 93 -9 16 9 22 9 25 0
2 -6 10 -11 18 -11 11 0 14 21 14 105 0 98 -1 105 -20 105 -18 0 -20 -7 -20
-80 0 -77 -1 -81 -26 -92 -46 -21 -59 -2 -62 91 -3 73 -5 81 -22 81 -18 0 -20
-7 -20 -85z"/>
<path d="M3800 2365 c0 -98 1 -105 20 -105 19 0 20 7 20 105 0 98 -1 105 -20
105 -19 0 -20 -7 -20 -105z"/>
</g>
</svg>
